<svg width="48" height="48" viewBox="0 0 48 48" fill="none" xmlns="http://www.w3.org/2000/svg">
<g id="copy">
<g id="Group 11">
<path id="Rectangle 23" d="M11 13C11 10.2386 13.2386 8 16 8H26C28.2091 8 30 9.79086 30 12V12C30 14.2091 28.2091 16 26 16H24C21.2386 16 19 18.2386 19 21V29C19 31.2091 17.2091 33 15 33V33C12.7909 33 11 31.2091 11 29V13Z" stroke="#FFC684" stroke-width="2"/>
<path id="Rectangle 18" d="M19 21C19 18.2386 21.2386 16 24 16H33C35.7614 16 38 18.2386 38 21V36C38 38.7614 35.7614 41 33 41H24C21.2386 41 19 38.7614 19 36V21Z" stroke="#FFC684" stroke-width="2"/>
<path id="Vector 11" d="M29.5635 14.3022V15.5232" stroke="#FFC684" stroke-width="2"/>
<path id="Vector 10" d="M17.9648 32.6162L19.1858 32.6162" stroke="#FFC684" stroke-width="2"/>
<path id="Vector 8" d="M15 33H16C17.6569 33 19 34.3431 19 36V36" stroke="#FFC684" stroke-width="2"/>
<path id="Vector 9" d="M30 12L30 13C30 14.6569 31.3431 16 33 16V16" stroke="#FFC684" stroke-width="2"/>
</g>
</g>
</svg>
