<svg width="48" height="48" viewBox="0 0 48 48" fill="none" xmlns="http://www.w3.org/2000/svg">
<g id="trash">
<path id="Vector 15" d="M29 12H27.274C27.0986 12 26.9303 11.9303 26.8063 11.8063V11.8063C25.2564 10.2564 22.7436 10.2564 21.1937 11.8063V11.8063C21.0697 11.9303 20.9014 12 20.726 12H19" stroke="#FFC684" stroke-width="2" stroke-linecap="round"/>
<path id="Rectangle 25" d="M11 16V16C13.2091 16 15 17.7909 15 20V32C15 34.7614 17.2386 37 20 37H28C30.7614 37 33 34.7614 33 32V20C33 17.7909 34.7909 16 37 16V16" stroke="#FFC684" stroke-width="2" stroke-linecap="round" stroke-linejoin="round"/>
<path id="Vector 12" d="M11 16L37 16" stroke="#FFC684" stroke-width="2" stroke-linecap="round"/>
<path id="Vector 9" d="M15 20V20C15 17.7909 16.7909 16 19 15.9999V15.9999" stroke="#FFC684" stroke-width="2"/>
<path id="Vector 13" d="M33 20V20C33 17.7909 31.2091 16 29 15.9999V15.9999" stroke="#FFC684" stroke-width="2"/>
</g>
</svg>
