<svg width="50" height="50" viewBox="0 0 50 50" fill="none" xmlns="http://www.w3.org/2000/svg">
<path d="M29.3621 11.1207V38.4828" stroke="#FFC684" stroke-width="4"/>
<path d="M20.6379 11.1207V38.4828" stroke="#FFC684" stroke-width="4"/>
<path d="M11.1206 20.6379H38.8792" stroke="#FFC684" stroke-width="4"/>
<path d="M11.1206 29.3621H38.8792" stroke="#FFC684" stroke-width="4"/>
<path d="M2 11.319C2 6.17224 6.17224 2 11.319 2V2C16.4657 2 20.6379 6.17224 20.6379 11.319V16.9103C20.6379 18.969 18.969 20.6379 16.9103 20.6379H11.319C6.17224 20.6379 2 16.4657 2 11.319V11.319Z" stroke="#FFC684" stroke-width="4"/>
<path d="M48 11.319C48 6.17224 43.8278 2 38.681 2V2C33.5343 2 29.3621 6.17224 29.3621 11.319V16.9103C29.3621 18.969 31.031 20.6379 33.0897 20.6379H38.681C43.8278 20.6379 48 16.4657 48 11.319V11.319Z" stroke="#FFC684" stroke-width="4"/>
<path d="M2 38.681C2 43.8278 6.17224 48 11.319 48V48C16.4657 48 20.6379 43.8278 20.6379 38.681V33.0897C20.6379 31.031 18.969 29.3621 16.9103 29.3621H11.319C6.17224 29.3621 2 33.5343 2 38.681V38.681Z" stroke="#FFC684" stroke-width="4"/>
<path d="M48 38.681C48 43.8278 43.8278 48 38.681 48V48C33.5343 48 29.3621 43.8278 29.3621 38.681V33.0897C29.3621 31.031 31.031 29.3621 33.0897 29.3621H38.681C43.8278 29.3621 48 33.5343 48 38.681V38.681Z" stroke="#FFC684" stroke-width="4"/>
</svg>
